<?xml version="1.0" encoding="UTF-8" standalone="no"?>
<!-- Created with Inkscape (http://www.inkscape.org/) -->
<svg
   xmlns:dc="http://purl.org/dc/elements/1.1/"
   xmlns:cc="http://web.resource.org/cc/"
   xmlns:rdf="http://www.w3.org/1999/02/22-rdf-syntax-ns#"
   xmlns:svg="http://www.w3.org/2000/svg"
   xmlns="http://www.w3.org/2000/svg"
   xmlns:sodipodi="http://sodipodi.sourceforge.net/DTD/sodipodi-0.dtd"
   xmlns:inkscape="http://www.inkscape.org/namespaces/inkscape"
   width="694.4776"
   height="570.00049"
   id="svg2"
   inkscape:label="Pozadí"
   sodipodi:version="0.32"
   inkscape:version="0.44.1"
   sodipodi:docbase="D:\_petr_\School\INKSCAPE\svg\05.Ovoce, zelenina, jidlo\jidlo"
   sodipodi:docname="dort.svg"
   inkscape:export-filename="C:\Documents and Settings\Šárka\Plocha\PNG\5) c) Jídlo =)\dort.png"
   inkscape:export-xdpi="90"
   inkscape:export-ydpi="90"
   version="1.0">
  <defs
     id="defs9055" />
  <sodipodi:namedview
     id="base"
     pagecolor="#ffffff"
     bordercolor="#666666"
     borderopacity="1.0"
     inkscape:pageopacity="0.0"
     inkscape:pageshadow="2"
     inkscape:zoom="0.49032549"
     inkscape:cx="372.04724"
     inkscape:cy="526.18109"
     inkscape:document-units="px"
     inkscape:current-layer="layer1"
     showguides="true"
     inkscape:guide-bbox="true"
     inkscape:window-width="1024"
     inkscape:window-height="712"
     inkscape:window-x="-4"
     inkscape:window-y="-4" />
  <metadata
     id="metadata9058">
    <rdf:RDF>
      <cc:Work
         rdf:about="">
        <dc:format>image/svg+xml</dc:format>
        <dc:type
           rdf:resource="http://purl.org/dc/dcmitype/StillImage" />
        <dc:title>Dort</dc:title>
        <dc:date>11.11.2006</dc:date>
        <dc:creator>
          <cc:Agent>
            <dc:title>Sarka Slukova</dc:title>
          </cc:Agent>
        </dc:creator>
        <dc:publisher>
          <cc:Agent>
            <dc:title>ZS a MS Machovo namesti</dc:title>
          </cc:Agent>
        </dc:publisher>
        <dc:language>CZ</dc:language>
        <dc:subject>
          <rdf:Bag>
            <rdf:li>dort</rdf:li>
            <rdf:li>cake</rdf:li>
          </rdf:Bag>
        </dc:subject>
        <cc:license
           rdf:resource="http://web.resource.org/cc/PublicDomain" />
      </cc:Work>
      <cc:License
         rdf:about="http://web.resource.org/cc/PublicDomain">
        <cc:permits
           rdf:resource="http://web.resource.org/cc/Reproduction" />
        <cc:permits
           rdf:resource="http://web.resource.org/cc/Distribution" />
        <cc:permits
           rdf:resource="http://web.resource.org/cc/DerivativeWorks" />
      </cc:License>
    </rdf:RDF>
  </metadata>
  <g
     inkscape:label="Vrstva 1"
     inkscape:groupmode="layer"
     id="layer1"
     transform="translate(-28.02195,-340.1299)">
    <g
       id="g10397">
      <path
         transform="matrix(0.960537,0,0,0.923465,22.64466,58.34689)"
         d="M 728.0878 842.29767 A 360.98471 79.539001 0 1 1  6.1183777,842.29767 A 360.98471 79.539001 0 1 1  728.0878 842.29767 z"
         sodipodi:ry="79.539001"
         sodipodi:rx="360.98471"
         sodipodi:cy="842.29767"
         sodipodi:cx="367.10309"
         id="path10395"
         style="opacity:1;fill:#d7e3f4;fill-opacity:1;stroke:black;stroke-width:1.06099999;stroke-miterlimit:4;stroke-dasharray:none;stroke-opacity:1"
         sodipodi:type="arc" />
      <g
         transform="matrix(1.482445,0,0,1.638072,-185.2591,-300.5149)"
         id="g10356">
        <path
           style="fill:#fc0;fill-opacity:1;stroke:black;stroke-width:3.636307;stroke-miterlimit:4;stroke-opacity:1"
           d="M 196.93224,577.10529 L 547.47127,577.10529 C 548.13954,577.10529 548.67754,577.64328 548.67754,578.31156 C 548.67754,578.31156 549.924,666.64149 548.67754,699.49006 C 548.67153,699.64844 485.96506,713.2628 485.46023,713.33402 C 462.90173,716.51654 363.96857,718.53259 354.24672,718.47331 C 344.1549,718.40837 195.73198,703.25696 195.72597,702.58871 C 195.43041,669.71783 195.72597,578.31156 195.72597,578.31156 C 195.72597,577.64328 196.26396,577.10529 196.93224,577.10529 z "
           id="rect9061"
           sodipodi:nodetypes="cccsssscc" />
        <path
           sodipodi:nodetypes="cccsssscc"
           id="path9068"
           d="M 198.61723,578.78758 L 549.86435,578.78758 C 550.53397,578.78758 551.07306,575.13426 551.07306,575.56488 C 551.07306,575.56488 552.32204,632.4839 551.07306,653.65123 C 551.06704,653.75329 488.2339,668.52625 487.72805,668.57215 C 465.12398,670.62294 365.99097,673.92206 356.24949,673.88387 C 346.13728,673.84201 197.41454,656.07858 197.40852,655.64797 C 197.11236,634.46626 197.40852,579.56488 197.40852,579.56488 C 197.40852,579.13426 197.9476,578.78758 198.61723,578.78758 z "
           style="fill:#fd5;fill-opacity:1;stroke:black;stroke-width:2.92195487;stroke-miterlimit:4;stroke-opacity:1" />
        <path
           sodipodi:type="arc"
           style="opacity:1;fill:#ff2a2a;fill-opacity:1;stroke:black;stroke-width:3.76099992;stroke-miterlimit:4;stroke-dasharray:none;stroke-opacity:1"
           id="path9065"
           sodipodi:cx="355.88605"
           sodipodi:cy="547.59546"
           sodipodi:rx="176.41342"
           sodipodi:ry="56.085194"
           d="M 532.29947 547.59546 A 176.41342 56.085194 0 1 1  179.47263,547.59546 A 176.41342 56.085194 0 1 1  532.29947 547.59546 z"
           transform="matrix(1.000788,0,0,0.857023,18.07488,106.8462)" />
        <path
           id="path9270"
           d="M 224.81729,469.80579 L 239.62889,469.80579 L 239.62889,570.95855 L 224.81729,570.95855 L 224.81729,469.80579 z "
           style="fill:#0cf;fill-opacity:1;stroke:black;stroke-width:1.36504316;stroke-miterlimit:4;stroke-opacity:1" />
        <rect
           y="462.79727"
           x="230.82253"
           height="7.0851026"
           width="1.6364658"
           id="rect9272"
           style="fill:yellow;fill-opacity:1;stroke:black;stroke-width:1.36504316;stroke-miterlimit:4;stroke-dasharray:none;stroke-opacity:1" />
        <path
           sodipodi:nodetypes="csssc"
           id="path9274"
           d="M 242.93238,442.89151 C 242.93238,454.4382 238.02036,463.80942 231.96805,463.80942 C 225.91575,463.80942 221.00373,454.4382 221.00373,442.89151 C 221.00373,431.34481 234.42538,408.14076 240.47768,408.14076 C 246.52998,408.14076 242.93238,431.34481 242.93238,442.89151 z "
           style="fill:yellow;fill-opacity:1;stroke:black;stroke-width:1.36504316;stroke-miterlimit:4;stroke-opacity:1" />
        <path
           sodipodi:nodetypes="csssc"
           id="path9276"
           d="M 243.27399,430.65239 C 243.27399,439.08452 239.77471,445.92798 234.27513,445.92798 C 228.77554,445.92798 226.24043,439.08452 226.24043,430.65239 C 226.24043,422.22027 235.20329,408.47816 240.70289,408.47816 C 246.20247,408.47816 243.27399,422.22027 243.27399,430.65239 z "
           style="fill:#ff2a2a;fill-opacity:1;stroke:none;stroke-width:1.48099995;stroke-miterlimit:4;stroke-opacity:1" />
        <path
           style="fill:yellow;fill-opacity:1;stroke:black;stroke-width:1.36504316;stroke-miterlimit:4;stroke-opacity:1"
           d="M 367.57949,508.47659 L 382.39109,508.47659 L 382.39109,609.62935 L 367.57949,609.62935 L 367.57949,508.47659 z "
           id="path9373" />
        <rect
           style="fill:yellow;fill-opacity:1;stroke:black;stroke-width:1.36504316;stroke-miterlimit:4;stroke-dasharray:none;stroke-opacity:1"
           id="rect9375"
           width="1.6364658"
           height="7.0851026"
           x="373.58472"
           y="501.46808" />
        <path
           style="fill:yellow;fill-opacity:1;stroke:black;stroke-width:1.36504316;stroke-miterlimit:4;stroke-opacity:1"
           d="M 385.69458,481.56231 C 385.69458,493.109 380.78256,502.48022 374.73025,502.48022 C 368.67795,502.48022 363.76593,493.109 363.76593,481.56231 C 363.76593,470.01561 377.18758,446.81156 383.23988,446.81156 C 389.29218,446.81156 385.69458,470.01561 385.69458,481.56231 z "
           id="path9377"
           sodipodi:nodetypes="csssc" />
        <path
           style="fill:#ff2a2a;fill-opacity:1;stroke:none;stroke-width:1.48099995;stroke-miterlimit:4;stroke-opacity:1"
           d="M 386.03619,469.32319 C 386.03619,477.75532 382.53691,484.59878 377.03733,484.59878 C 371.53774,484.59878 369.00263,477.75532 369.00263,469.32319 C 369.00263,460.89107 377.96549,447.14896 383.46509,447.14896 C 388.96467,447.14896 386.03619,460.89107 386.03619,469.32319 z "
           id="path9379"
           sodipodi:nodetypes="csssc" />
        <path
           id="path9383"
           d="M 498.10509,471.76629 L 512.91669,471.76629 L 512.91669,572.91905 L 498.10509,572.91905 L 498.10509,471.76629 z "
           style="fill:red;fill-opacity:1;stroke:black;stroke-width:1.36504316;stroke-miterlimit:4;stroke-opacity:1" />
        <rect
           y="464.75778"
           x="504.11032"
           height="7.0851026"
           width="1.6364658"
           id="rect9385"
           style="fill:yellow;fill-opacity:1;stroke:black;stroke-width:1.36504316;stroke-miterlimit:4;stroke-dasharray:none;stroke-opacity:1" />
        <path
           sodipodi:nodetypes="csssc"
           id="path9387"
           d="M 516.22018,444.85201 C 516.22018,456.3987 511.30816,465.76992 505.25585,465.76992 C 499.20355,465.76992 494.29153,456.3987 494.29153,444.85201 C 494.29153,433.30531 507.71318,410.10126 513.76548,410.10126 C 519.81778,410.10126 516.22018,433.30531 516.22018,444.85201 z "
           style="fill:yellow;fill-opacity:1;stroke:black;stroke-width:1.36504316;stroke-miterlimit:4;stroke-opacity:1" />
        <path
           sodipodi:nodetypes="csssc"
           id="path9389"
           d="M 516.56179,432.61289 C 516.56179,441.04502 513.06251,447.88848 507.56293,447.88848 C 502.06334,447.88848 499.52823,441.04502 499.52823,432.61289 C 499.52823,424.18077 508.49109,410.43866 513.99069,410.43866 C 519.49027,410.43866 516.56179,424.18077 516.56179,432.61289 z "
           style="fill:#ff7f2a;fill-opacity:1;stroke:none;stroke-width:1.48099995;stroke-miterlimit:4;stroke-opacity:1" />
        <path
           style="fill:#6f0;fill-opacity:1;stroke:black;stroke-width:1.36504316;stroke-miterlimit:4;stroke-opacity:1"
           d="M 410.40829,453.45059 L 425.21989,453.45059 L 425.21989,554.60335 L 410.40829,554.60335 L 410.40829,453.45059 z "
           id="path9393" />
        <rect
           style="fill:yellow;fill-opacity:1;stroke:black;stroke-width:1.36504316;stroke-miterlimit:4;stroke-dasharray:none;stroke-opacity:1"
           id="rect9395"
           width="1.6364658"
           height="7.0851026"
           x="416.41351"
           y="446.44208" />
        <path
           style="fill:yellow;fill-opacity:1;stroke:black;stroke-width:1.36504316;stroke-miterlimit:4;stroke-opacity:1"
           d="M 428.52338,426.53631 C 428.52338,438.083 423.61136,447.45422 417.55905,447.45422 C 411.50675,447.45422 406.59473,438.083 406.59473,426.53631 C 406.59473,414.98961 420.01638,391.78556 426.06868,391.78556 C 432.12098,391.78556 428.52338,414.98961 428.52338,426.53631 z "
           id="path9397"
           sodipodi:nodetypes="csssc" />
        <path
           style="fill:#ff7f2a;fill-opacity:1;stroke:none;stroke-width:1.48099995;stroke-miterlimit:4;stroke-opacity:1"
           d="M 428.86499,414.29719 C 428.86499,422.72932 425.36571,429.57278 419.86613,429.57278 C 414.36654,429.57278 411.83143,422.72932 411.83143,414.29719 C 411.83143,405.86507 420.79429,392.12296 426.29389,392.12296 C 431.79347,392.12296 428.86499,405.86507 428.86499,414.29719 z "
           id="path9399"
           sodipodi:nodetypes="csssc" />
        <path
           id="path9403"
           d="M 318.63249,453.41119 L 333.44409,453.41119 L 333.44409,554.56395 L 318.63249,554.56395 L 318.63249,453.41119 z "
           style="fill:#ff80e5;fill-opacity:1;stroke:black;stroke-width:1.36504316;stroke-miterlimit:4;stroke-opacity:1" />
        <rect
           y="446.40268"
           x="324.63773"
           height="7.0851026"
           width="1.6364658"
           id="rect9405"
           style="fill:yellow;fill-opacity:1;stroke:black;stroke-width:1.36504316;stroke-miterlimit:4;stroke-dasharray:none;stroke-opacity:1" />
        <path
           sodipodi:nodetypes="csssc"
           id="path9407"
           d="M 336.74758,426.49691 C 336.74758,438.0436 331.83556,447.41482 325.78325,447.41482 C 319.73095,447.41482 314.81893,438.0436 314.81893,426.49691 C 314.81893,414.95021 328.24058,391.74616 334.29288,391.74616 C 340.34518,391.74616 336.74758,414.95021 336.74758,426.49691 z "
           style="fill:yellow;fill-opacity:1;stroke:black;stroke-width:1.36504316;stroke-miterlimit:4;stroke-opacity:1" />
        <path
           sodipodi:nodetypes="csssc"
           id="path9409"
           d="M 337.08919,414.25779 C 337.08919,422.68992 333.58991,429.53338 328.09033,429.53338 C 322.59074,429.53338 320.05563,422.68992 320.05563,414.25779 C 320.05563,405.82567 329.01849,392.08356 334.51809,392.08356 C 340.01767,392.08356 337.08919,405.82567 337.08919,414.25779 z "
           style="fill:#ff2a2a;fill-opacity:1;stroke:none;stroke-width:1.48099995;stroke-miterlimit:4;stroke-opacity:1" />
        <path
           style="fill:#95f;fill-opacity:1;stroke:black;stroke-width:1.36504316;stroke-miterlimit:4;stroke-opacity:1"
           d="M 273.76429,492.16099 L 288.57589,492.16099 L 288.57589,593.31375 L 273.76429,593.31375 L 273.76429,492.16099 z "
           id="path9413" />
        <rect
           style="fill:yellow;fill-opacity:1;stroke:black;stroke-width:1.36504316;stroke-miterlimit:4;stroke-dasharray:none;stroke-opacity:1"
           id="rect9415"
           width="1.6364658"
           height="7.0851026"
           x="279.76953"
           y="485.15247" />
        <path
           style="fill:yellow;fill-opacity:1;stroke:black;stroke-width:1.36504316;stroke-miterlimit:4;stroke-opacity:1"
           d="M 291.87938,465.24671 C 291.87938,476.7934 286.96736,486.16462 280.91505,486.16462 C 274.86275,486.16462 269.95073,476.7934 269.95073,465.24671 C 269.95073,453.70001 283.37238,430.49596 289.42468,430.49596 C 295.47698,430.49596 291.87938,453.70001 291.87938,465.24671 z "
           id="path9417"
           sodipodi:nodetypes="csssc" />
        <path
           style="fill:#f60;fill-opacity:1;stroke:none;stroke-width:1.48099995;stroke-miterlimit:4;stroke-opacity:1"
           d="M 292.22099,453.00759 C 292.22099,461.43972 288.72171,468.28318 283.22213,468.28318 C 277.72254,468.28318 275.18743,461.43972 275.18743,453.00759 C 275.18743,444.57547 284.15029,430.83336 289.64989,430.83336 C 295.14947,430.83336 292.22099,444.57547 292.22099,453.00759 z "
           id="path9419"
           sodipodi:nodetypes="csssc" />
        <path
           style="fill:#f60;fill-opacity:1;stroke:black;stroke-width:1.36504316;stroke-miterlimit:4;stroke-opacity:1"
           d="M 445.07919,492.12149 L 459.89079,492.12149 L 459.89079,593.27425 L 445.07919,593.27425 L 445.07919,492.12149 z "
           id="path9423" />
        <rect
           style="fill:yellow;fill-opacity:1;stroke:black;stroke-width:1.36504316;stroke-miterlimit:4;stroke-dasharray:none;stroke-opacity:1"
           id="rect9425"
           width="1.6364658"
           height="7.0851026"
           x="451.08444"
           y="485.11298" />
        <path
           style="fill:yellow;fill-opacity:1;stroke:black;stroke-width:1.36504316;stroke-miterlimit:4;stroke-opacity:1"
           d="M 463.19428,465.20721 C 463.19428,476.7539 458.28226,486.12512 452.22995,486.12512 C 446.17765,486.12512 441.26563,476.7539 441.26563,465.20721 C 441.26563,453.66051 454.68728,430.45646 460.73958,430.45646 C 466.79188,430.45646 463.19428,453.66051 463.19428,465.20721 z "
           id="path9427"
           sodipodi:nodetypes="csssc" />
        <path
           style="fill:#ff2a2a;fill-opacity:1;stroke:none;stroke-width:1.48099995;stroke-miterlimit:4;stroke-opacity:1"
           d="M 463.53589,452.96809 C 463.53589,461.40022 460.03661,468.24368 454.53703,468.24368 C 449.03744,468.24368 446.50233,461.40022 446.50233,452.96809 C 446.50233,444.53597 455.46519,430.79386 460.96479,430.79386 C 466.46437,430.79386 463.53589,444.53597 463.53589,452.96809 z "
           id="path9429"
           sodipodi:nodetypes="csssc" />
        <path
           sodipodi:type="arc"
           style="opacity:1;fill:#80b3ff;fill-opacity:1;stroke:black;stroke-width:1.06099999;stroke-miterlimit:4;stroke-dasharray:none;stroke-opacity:1"
           id="path9459"
           sodipodi:cx="116.81149"
           sodipodi:cy="511.56827"
           sodipodi:rx="7.931644"
           sodipodi:ry="7.931644"
           d="M 124.74314 511.56827 A 7.931644 7.931644 0 1 1  108.87985,511.56827 A 7.931644 7.931644 0 1 1  124.74314 511.56827 z"
           transform="translate(106.7167,121.1379)" />
        <path
           transform="translate(408.1191,118.2536)"
           d="M 124.74314 511.56827 A 7.931644 7.931644 0 1 1  108.87985,511.56827 A 7.931644 7.931644 0 1 1  124.74314 511.56827 z"
           sodipodi:ry="7.931644"
           sodipodi:rx="7.931644"
           sodipodi:cy="511.56827"
           sodipodi:cx="116.81149"
           id="path10346"
           style="opacity:1;fill:#80b3ff;fill-opacity:1;stroke:black;stroke-width:1.06099999;stroke-miterlimit:4;stroke-dasharray:none;stroke-opacity:1"
           sodipodi:type="arc" />
        <path
           sodipodi:type="arc"
           style="opacity:1;fill:#80b3ff;fill-opacity:1;stroke:black;stroke-width:1.06099999;stroke-miterlimit:4;stroke-dasharray:none;stroke-opacity:1"
           id="path10348"
           sodipodi:cx="116.81149"
           sodipodi:cy="511.56827"
           sodipodi:rx="7.931644"
           sodipodi:ry="7.931644"
           d="M 124.74314 511.56827 A 7.931644 7.931644 0 1 1  108.87985,511.56827 A 7.931644 7.931644 0 1 1  124.74314 511.56827 z"
           transform="translate(351.1555,134.117)" />
        <path
           transform="translate(285.5392,140.6064)"
           d="M 124.74314 511.56827 A 7.931644 7.931644 0 1 1  108.87985,511.56827 A 7.931644 7.931644 0 1 1  124.74314 511.56827 z"
           sodipodi:ry="7.931644"
           sodipodi:rx="7.931644"
           sodipodi:cy="511.56827"
           sodipodi:cx="116.81149"
           id="path10350"
           style="opacity:1;fill:#80b3ff;fill-opacity:1;stroke:black;stroke-width:1.06099999;stroke-miterlimit:4;stroke-dasharray:none;stroke-opacity:1"
           sodipodi:type="arc" />
        <path
           sodipodi:type="arc"
           style="opacity:1;fill:#80b3ff;fill-opacity:1;stroke:black;stroke-width:1.06099999;stroke-miterlimit:4;stroke-dasharray:none;stroke-opacity:1"
           id="path10352"
           sodipodi:cx="116.81149"
           sodipodi:cy="511.56827"
           sodipodi:rx="7.931644"
           sodipodi:ry="7.931644"
           d="M 124.74314 511.56827 A 7.931644 7.931644 0 1 1  108.87985,511.56827 A 7.931644 7.931644 0 1 1  124.74314 511.56827 z"
           transform="translate(227.8545,137.0011)" />
        <path
           transform="translate(168.9747,133.4642)"
           d="M 124.74314 511.56827 A 7.931644 7.931644 0 1 1  108.87985,511.56827 A 7.931644 7.931644 0 1 1  124.74314 511.56827 z"
           sodipodi:ry="7.931644"
           sodipodi:rx="7.931644"
           sodipodi:cy="511.56827"
           sodipodi:cx="116.81149"
           id="path10354"
           style="opacity:1;fill:#80b3ff;fill-opacity:1;stroke:black;stroke-width:1.06099999;stroke-miterlimit:4;stroke-dasharray:none;stroke-opacity:1"
           sodipodi:type="arc" />
      </g>
    </g>
  </g>
</svg>
